:SAMPLES-PER-SECOND 30
:FULLY-SPECIFIED
:DEGREES
38
root  85.5045 38.5295 -5.73709 -61.2854 -86.0022 57.8114
RightUpLeg  3.70357 -9.92297 -5.09382
RightLeg  14.8687 5.27583 0.914515
RightFoot  -16.0239 -0.210526 -2.49758
RightToes  -3.0268e-009 0 -3.6325e-017
Spine  8.5588 1.70581 9.72158
Spine1  0.296291 3.62372 -6.9538
HEad  -7.91314 -4.94516 -2.34131
LeftShoulder1  -0.477597 4.71796 -33.186
LeftArm  4.7527 13.3853 -38.4095
LeftForeArm  29.4195 -15.5166 -6.94388
LeftHand  -0.146942 9.63798 -2.46225
RightShoulder  -1.83187 -7.79684 36.092
RightArm  24.8723 2.74391 40.3
RightForeArm  3.68695 25.5461 5.28028
RightHand  -0.0788905 4.97099 -1.1876
LeftUpLeg  -20.0386 2.03339 -1.19742
LeftLeg  20.075 -0.126568 0.292739
LeftFoot  -3.14697 0.507278 -6.8109
LeftToes  2.52475e-009 -1.26109e-010 3.16044e-011
39
root  85.0566 38.4876 -5.68243 -49.996 -85.7838 47.3469
RightUpLeg  3.94908 -10.0626 -4.94122
RightLeg  14.3053 4.60591 1.0106
RightFoot  -16.4381 -0.224636 -2.55097
RightToes  -3.0268e-009 0 -3.6325e-017
Spine  7.84174 1.2705 9.35566
Spine1  0.203668 2.93849 -6.5916
HEad  -7.49044 -4.63449 -2.06478
LeftShoulder1  -0.514753 4.80605 -33.381
LeftArm  3.51195 13.876 -38.0541
LeftForeArm  30.3709 -14.3775 -7.45124
LeftHand  -0.13992 11.7635 -1.32019
RightShoulder  -1.84042 -7.83674 35.905
RightArm  24.0754 3.7666 40.6837
RightForeArm  4.38151 26.859 5.55006
RightHand  -0.0470452 5.27515 -0.83192
LeftUpLeg  -20.6736 1.17806 -1.12444
LeftLeg  15.0925 -1.19149 -0.0848193
LeftFoot  -2.43308 0.558077 -6.97985
LeftToes  2.52475e-009 -1.26109e-010 3.16044e-011
40
root  84.4708 38.5043 -5.63228 -60.7455 -86.3456 58.0589
RightUpLeg  5.50567 -9.82014 -5.1532
RightLeg  12.9742 5.37953 0.886068
RightFoot  -16.6251 -0.215353 -2.23006
RightToes  -3.0268e-009 0 -3.6325e-017
Spine  7.34016 1.62356 8.76832
Spine1  1.0525 3.30113 -6.60965
HEad  -6.80991 -5.51105 -1.39311
LeftShoulder1  -0.486245 4.72821 -33.5609
LeftArm  2.77205 14.6469 -37.8048
LeftForeArm  31.1304 -13.8355 -7.62422
LeftHand  -0.176975 13.4341 -1.70369
RightShoulder  -1.81614 -7.78227 35.8749
RightArm  23.3951 4.71002 40.8431
RightForeArm  4.53184 27.7816 5.75698
RightHand  -0.133471 4.52046 -1.84433
LeftUpLeg  -19.9834 1.75359 -1.11631
LeftLeg  11.1579 -0.284485 0.119689
LeftFoot  -1.53933 0.553333 -6.34038
LeftToes  2.52475e-009 -1.26109e-010 3.16044e-011
41
root  83.8325 38.4569 -5.53346 -66.3991 -86.6197 63.7204
RightUpLeg  6.87431 -9.82227 -5.42729
RightLeg  12.3199 5.97024 0.858655
RightFoot  -17.1628 -0.216478 -1.97928
RightToes  -3.0268e-009 0 -3.6325e-017
Spine  6.39845 1.60502 8.3216
Spine1  2.36702 3.2988 -6.55449
HEad  -6.56893 -4.81556 -0.803716
LeftShoulder1  -0.504764 4.77684 -33.4955
LeftArm  1.4816 15.0755 -37.7992
LeftForeArm  34.1165 -13.1654 -7.69327
LeftHand  -0.0937128 7.37945 -2.3861
RightShoulder  -1.73977 -7.64688 35.4342
RightArm  23.1126 5.75238 41.6636
RightForeArm  4.24328 28.0863 5.84482
RightHand  -0.183267 4.34295 -2.46812
LeftUpLeg  -19.7108 2.39331 -1.15852
LeftLeg  9.45586 0.0639263 -0.0634079
LeftFoot  -1.17758 0.482249 -5.34494
LeftToes  2.52475e-009 -1.26109e-010 3.16044e-011
42
root  83.1058 38.34 -5.40396 -78.5154 -87.025 75.8764
RightUpLeg  8.12711 -9.83577 -5.72964
RightLeg  12.0541 6.81349 0.824767
RightFoot  -18.1659 -0.220383 -1.63233
RightToes  -3.0268e-009 0 -3.6325e-017
Spine  5.41352 1.9431 7.90931
Spine1  3.44287 3.61769 -6.3235
HEad  -6.00085 -4.85569 -0.781594
LeftShoulder1  -0.523749 4.81903 -33.6664
LeftArm  0.955405 15.3843 -37.6577
LeftForeArm  33.9798 -12.8832 -7.74656
LeftHand  -0.14194 9.53962 -2.41229
RightShoulder  -1.70844 -7.59593 35.1959
RightArm  22.8085 6.3391 42.1006
RightForeArm  4.26718 28.1821 5.86618
RightHand  -0.212288 4.18228 -2.84824
LeftUpLeg  -19.662 3.34943 -1.18923
LeftLeg  9.82136 1.52858 0.11306
LeftFoot  -0.78406 0.417466 -4.46315
LeftToes  2.52475e-009 -1.26109e-010 3.16044e-011
43
root  82.3144 38.1468 -5.21432 -89.4132 -87.2775 86.6253
RightUpLeg  9.42041 -9.99688 -6.25452
RightLeg  12.5009 7.74762 0.924807
RightFoot  -19.564 -0.235532 -1.43703
RightToes  -3.0268e-009 0 -3.6325e-017
Spine  4.84639 2.10686 8.03656
Spine1  4.05732 3.91659 -6.67793
HEad  -5.28531 -4.94524 -0.521874
LeftShoulder1  -0.472237 4.69248 -33.5795
LeftArm  0.775252 15.8043 -37.4791
LeftForeArm  33.6423 -12.8762 -7.71278
LeftHand  -0.144957 10.676 -1.77016
RightShoulder  -1.63983 -7.44784 35.0237
RightArm  22.5362 6.42729 42.3976
RightForeArm  4.27607 27.8856 5.7957
RightHand  -0.226688 4.43606 -2.96222
LeftUpLeg  -19.5091 3.7505 -1.39292
LeftLeg  11.8111 2.88538 0.722875
LeftFoot  -0.612114 0.39406 -4.12212
LeftToes  2.52475e-009 -1.26109e-010 3.16044e-011
44
root  81.4385 37.9567 -4.97059 -99.3888 -87.1869 96.5024
RightUpLeg  10.8572 -10.0733 -7.10896
RightLeg  12.8112 8.54533 0.912374
RightFoot  -20.8746 -0.21841 -0.925004
RightToes  -3.0268e-009 0 -3.6325e-017
Spine  3.65274 2.23068 7.77336
Spine1  5.32594 4.14309 -6.88328
HEad  -4.65807 -4.16441 -0.789809
LeftShoulder1  -0.515558 4.79939 -33.6356
LeftArm  0.983297 15.8964 -37.4333
LeftForeArm  33.2353 -13.0934 -7.64004
LeftHand  -0.247061 12.4952 -2.79272
RightShoulder  -1.61658 -7.42545 34.6776
RightArm  23.7395 6.85687 42.9714
RightForeArm  4.00389 26.5613 5.49838
RightHand  -0.218341 4.25358 -2.93355
LeftUpLeg  -19.1822 4.02854 -2.00115
LeftLeg  14.0398 3.6227 1.26043
LeftFoot  0.688369 0.250217 -2.60122
LeftToes  2.52475e-009 -1.26109e-010 3.16044e-011
45
root  80.5621 37.8548 -4.71459 -113.053 -86.253 109.835
RightUpLeg  12.5592 -9.3065 -8.4484
RightLeg  12.6458 9.093 0.414338
RightFoot  -21.7208 -0.125712 0.22616
RightToes  -3.0268e-009 0 -3.6325e-017
Spine  3.29839 2.44425 6.52083
Spine1  5.86025 4.45843 -7.24864
HEad  -3.57677 -4.16586 -0.57036
LeftShoulder1  -0.575653 4.937 -34.0027
LeftArm  0.422479 16.0362 -36.9979
LeftForeArm  33.6231 -12.8963 -7.60418
LeftHand  -0.230042 11.296 -3.16574
RightShoulder  -1.59067 -7.37176 34.5809
RightArm  25.9843 6.97325 43.1415
RightForeArm  2.44114 24.3982 5.0938
RightHand  -0.164271 5.69788 -2.02568
LeftUpLeg  -18.51 5.45435 -3.37199
LeftLeg  15.6179 3.55087 1.35086
LeftFoot  3.39671 -0.214718 1.60813
LeftToes  2.52475e-009 -1.26109e-010 3.16044e-011
46
root  79.6151 37.7574 -4.44269 -117.708 -85.0655 114.26
RightUpLeg  13.3443 -6.66516 -9.49568
RightLeg  14.1894 7.75601 0.126862
RightFoot  -22.4455 0.0659186 2.23569
RightToes  -3.0268e-009 0 -3.6325e-017
Spine  2.20919 2.61756 4.98516
Spine1  6.87253 4.70392 -7.52107
HEad  -2.17172 -3.77138 -0.195646
LeftShoulder1  -0.610102 5.01078 -34.3181
LeftArm  0.182917 15.5082 -36.5796
LeftForeArm  35.4489 -12.2761 -7.8267
LeftHand  -0.00784014 4.8598 -2.68153
RightShoulder  -1.5883 -7.35178 34.7252
RightArm  28.6738 7.11832 43.6343
RightForeArm  1.66424 21.6992 4.97789
RightHand  -0.184379 5.38432 -2.31337
LeftUpLeg  -18.4194 5.74769 -4.79385
LeftLeg  18.9191 3.96794 1.85806
LeftFoot  1.62993 -0.441157 3.77157
LeftToes  2.52475e-009 -1.26109e-010 3.16044e-011
47
root  78.7015 37.7114 -4.18106 -120.982 -84.2058 116.728
RightUpLeg  13.9437 -2.04619 -9.89195
RightLeg  17.1495 4.73276 0.515235
RightFoot  -22.3029 0.378475 5.52561
RightToes  -3.0268e-009 0 -3.6325e-017
Spine  1.80691 2.79175 3.87138
Spine1  8.25125 4.99372 -7.76819
HEad  -1.32222 -3.91404 -0.0474194
LeftShoulder1  -0.620061 5.02627 -34.5497
LeftArm  -1.69066 13.445 -36.7126
LeftForeArm  39.0732 -10.387 -8.23658
LeftHand  0.115915 -0.00569565 -2.58284
RightShoulder  -1.51455 -7.20852 34.3369
RightArm  27.1817 6.72456 44.6003
RightForeArm  4.70462 18.1473 5.85199
RightHand  -0.155887 3.50062 -2.27588
LeftUpLeg  -17.0609 5.31335 -5.6624
LeftLeg  21.1003 5.19908 2.5353
LeftFoot  -0.570548 -0.370324 3.96685
LeftToes  2.52475e-009 -1.26109e-010 3.16044e-011
48
root  77.8829 37.7702 -3.91464 -121.821 -83.5085 116.927
RightUpLeg  13.2705 1.78518 -10.4297
RightLeg  22.0055 2.98426 1.23676
RightFoot  -20.8813 0.721727 10.391
RightToes  -3.0268e-009 0 -3.6325e-017
Spine  2.2372 2.92394 2.72885
Spine1  8.45669 5.1027 -8.42795
HEad  -0.108072 -3.6392 0.00384207
LeftShoulder1  -0.636297 5.0536 -34.8751
LeftArm  -3.46545 11.216 -36.9938
LeftForeArm  40.5668 -8.26495 -8.5403
LeftHand  0.0137786 3.11339 -1.72339
RightShoulder  -1.46021 -7.08895 34.183
RightArm  23.7467 5.66867 44.8223
RightForeArm  9.2205 14.2642 7.26839
RightHand  -0.141589 3.27232 -2.14639
LeftUpLeg  -15.0681 5.71216 -6.62488
LeftLeg  21.3134 5.29248 2.61135
LeftFoot  -2.18877 -0.33884 4.39361
LeftToes  2.52475e-009 -1.26109e-010 3.16044e-011
